<?xml version="1.0" encoding="UTF-8" standalone="no"?>
<svg
   width="78"
   height="28"
   viewBox="0 0 78 28"
   fill="none"
   version="1.1"
   id="svg2"
   sodipodi:docname="logo-dark.svg"
   inkscape:version="1.3 (0e150ed6c4, 2023-07-21)"
   xmlns:inkscape="http://www.inkscape.org/namespaces/inkscape"
   xmlns:sodipodi="http://sodipodi.sourceforge.net/DTD/sodipodi-0.dtd"
   xmlns="http://www.w3.org/2000/svg"
   xmlns:svg="http://www.w3.org/2000/svg">
  <defs
     id="defs2" />
  <sodipodi:namedview
     id="namedview2"
     pagecolor="#ffffff"
     bordercolor="#000000"
     borderopacity="0.25"
     inkscape:showpageshadow="2"
     inkscape:pageopacity="0.0"
     inkscape:pagecheckerboard="0"
     inkscape:deskcolor="#d1d1d1"
     inkscape:zoom="7.9957459"
     inkscape:cx="44.39861"
     inkscape:cy="-4.6274607"
     inkscape:window-width="1600"
     inkscape:window-height="948"
     inkscape:window-x="-6"
     inkscape:window-y="-6"
     inkscape:window-maximized="1"
     inkscape:current-layer="svg2" />
  <g
     id="text2"
     style="font-size:13.3333px;line-height:0.9;font-family:Do431;-inkscape-font-specification:Do431;fill:#ffffff"
     aria-label="Философия&#10; картографии">
    <path
       d="M 6.7682486,3.989337 H 6.0882503 L 4.9549199,8.575992 h 0.5466652 q 1.199997,0 2.0799948,-0.7866646 0.8799978,-0.7866647 0.8799978,-1.9466618 0,-0.8266646 -0.4399989,-1.33333 Q 7.5815799,3.989337 6.7682486,3.989337 Z M 3.314924,8.575992 H 3.9682557 L 5.0882528,3.989337 H 3.8882559 q -1.3733299,0 -2.0399949,1.5866626 -0.2266661,0.5466653 -0.2266661,1.1333305 0,0.8266646 0.4399989,1.3466632 Q 2.5015927,8.575992 3.314924,8.575992 Z M 4.114922,3.1226725 h 1.1999969 l 0.399999,-1.6933291 h 0.9599976 l -0.399999,1.7466623 h 0.5466653 q 1.1866637,0 1.8799953,0.7733314 0.7066648,0.759998 0.7066648,1.9199951 0,0.666665 -0.3466658,1.3733299 Q 8.0082455,9.4026566 5.4215853,9.4026566 H 4.7549204 L 4.2882549,11.255985 H 3.3282573 L 3.7815895,9.4026566 H 3.2215909 q -1.1733304,0 -1.8799952,-0.7199982 Q 0.64826407,7.9626602 0.64826407,6.7893299 0.64826407,5.149334 1.581595,4.1360033 2.514926,3.1226725 4.114922,3.1226725 Z M 14.16824,11.255985 h -0.853331 q -0.266666,-0.346666 -0.266666,-0.959997 -0.999997,1.066664 -2.119994,1.066664 -0.799998,0 -1.1066642,-0.293333 -0.4533322,-0.426666 -0.4533322,-1.053331 0,-0.1999991 0.08,-0.5333316 L 10.648249,4.482669 h 0.786665 L 10.24825,9.4426565 q -0.06667,0.2799993 -0.06667,0.399999 0,0.7866645 0.786665,0.7866645 0.399999,0 1.33333,-0.7733312 0.933331,-0.7733314 1.039997,-1.1866637 L 14.381573,4.482669 h 0.813332 l -1.346664,5.653319 q 0,0.613332 0.319999,1.119997 z M 16.23489,9.3893233 17.794886,4.482669 h 2.946659 l -1.573329,6.773316 h -0.813332 l 1.439997,-6.0533178 h -1.399997 l -1.29333,3.9999899 q -0.02667,0.093333 -0.186666,0.533332 -0.533332,1.5199959 -1.706662,1.5199959 h -0.746665 l 0.159999,-0.719998 q 1.253331,0 1.61333,-1.1466637 z m 9.333318,-2.6933265 q 0.08,-1.6133293 -1.266663,-1.6399959 -1.999995,-0.04 -2.479994,4.1466562 -0.06667,0.5999985 0.253333,1.0533309 0.333332,0.493332 0.933331,0.493332 1.13333,0 1.853328,-1.3599967 0.626665,-1.1866637 0.706665,-2.6933265 z m 0.813331,0 q -0.04,1.8399953 -1.039997,3.4133242 -0.799998,1.279997 -2.093328,1.33333 -1.093331,0.05333 -1.653329,-0.573331 -0.559999,-0.626666 -0.559999,-1.7333294 0,-0.9466643 0.253333,-1.7333289 1.013331,-3.1066589 2.959993,-3.1066589 2.199994,0 2.133327,2.399994 z m 4.186659,2.3066608 h 0.826665 q -0.09333,0.9199977 -0.733332,1.6399954 -0.666665,0.773332 -1.559996,0.799998 -1.199997,0.02667 -1.746662,-0.586665 -0.506666,-0.573332 -0.493332,-1.7999952 0.01333,-1.559996 0.733331,-3.0799922 0.786665,-1.6666625 2.306661,-1.6666625 1.933328,0 1.933328,1.9599951 0,0.1599996 -0.02667,0.4266656 H 31.02153 q 0,-0.8133313 -0.146666,-1.1333305 -0.226666,-0.5066654 -0.919998,-0.5066654 -1.066664,0 -1.653329,1.33333 -0.639998,1.466663 -0.639998,2.8133262 0,1.5866629 1.199997,1.5866629 0.679998,0 1.159997,-0.573332 0.413332,-0.4799989 0.546665,-1.2133304 z M 36.64817,6.6959968 q 0.08,-1.6133293 -1.266664,-1.6399959 -1.999994,-0.04 -2.479993,4.1466562 -0.06667,0.5999985 0.253332,1.0533309 0.333333,0.493332 0.933331,0.493332 1.133331,0 1.853329,-1.3599967 0.626665,-1.1866637 0.706665,-2.6933265 z m 0.813331,0 q -0.04,1.8399953 -1.039997,3.4133242 -0.799998,1.279997 -2.093328,1.33333 -1.093331,0.05333 -1.653329,-0.573331 -0.559999,-0.626666 -0.559999,-1.7333294 0,-0.9466643 0.253333,-1.7333289 1.013331,-3.1066589 2.959992,-3.1066589 2.199995,0 2.133328,2.399994 z m 4.266661,2.2133277 0.573331,-2.6533266 q -0.09333,-1.199997 -1.279996,-1.199997 -1.213331,0 -1.586663,1.3599966 l -0.253333,0.9199977 q -0.02667,0.1066664 -0.133333,0.5466653 l -0.173333,0.7333314 q -0.08,0.3333325 -0.08,0.8666645 0,0.5466656 0.306665,0.9066646 0.32,0.359999 0.853332,0.359999 1.37333,0 1.773329,-1.8399955 z m 0.479998,1.5466625 h -0.02667 l -0.973331,4.359989 h -0.799998 l 0.893331,-3.99999 q 0,0.01333 -0.04,0.05333 l 0.02667,-0.02667 q 0.01333,-0.01333 0.01333,-0.01333 0.01333,0 0.02667,-0.01333 v 0 q 0,0.226666 -0.573332,0.399999 -0.479999,0.16 -0.813332,0.16 -1.346663,0 -1.733329,-0.986664 -0.186666,-0.479999 -0.186666,-0.9999977 0,-0.8933311 0.346666,-2.1999944 0.373332,-1.4133298 0.866664,-2.0399949 0.666665,-0.8399979 1.733329,-0.8399979 1.026665,0 1.693329,0.6799983 l 0.02667,-0.013333 0.533332,-2.3466607 h 0.813331 l -0.519998,2.2933275 0.08,-0.026667 q 0.173333,-0.053333 0.32,-0.1599996 l 0.253332,-0.1733329 q 0.293333,-0.1999995 0.679999,-0.1999995 0.946664,0 1.453329,0.5199987 0.519999,0.5199987 0.519999,1.466663 0,0.4133323 -0.16,1.2666635 -0.479998,2.5599935 -1.226663,3.3066585 -0.493332,0.493332 -1.159997,0.493332 -0.786665,0 -1.199997,-0.16 -0.559999,-0.213333 -0.866665,-0.799998 z m 0.906665,-3.973323 -0.506666,2.3199941 q -0.08,0.3599991 -0.08,0.6399984 0,0.533332 0.373333,0.9599975 0.386666,0.413332 0.906664,0.413332 1.279997,0 1.799996,-1.6799954 0.453332,-1.4533296 0.453332,-2.759993 0,-0.5733319 -0.346666,-0.9466643 -0.346666,-0.3866657 -0.919998,-0.3866657 -0.599998,0 -1.079997,0.4266656 -0.466665,0.4133323 -0.599998,1.0133308 z m 8.866631,4.773321 h -0.853331 q -0.266666,-0.346666 -0.266666,-0.959997 -0.999998,1.066664 -2.119995,1.066664 -0.799998,0 -1.106664,-0.293333 -0.453332,-0.426666 -0.453332,-1.053331 0,-0.1999991 0.08,-0.5333316 L 48.461465,4.482669 h 0.786664 l -1.186663,4.9599875 q -0.06667,0.2799993 -0.06667,0.399999 0,0.7866645 0.786665,0.7866645 0.399999,0 1.33333,-0.7733312 0.933331,-0.7733314 1.039997,-1.1866637 L 52.194789,4.482669 h 0.813331 l -1.346663,5.653319 q 0,0.613332 0.319999,1.119997 z m 4.15998,-3.7599902 h 1.533329 L 58.26143,5.2026672 h -1.533329 q -1.733329,0 -1.733329,1.2533302 0,0.4666655 0.333333,0.7599981 0.333332,0.2799993 0.813331,0.2799993 z m -2.66666,3.7599902 H 52.581445 Q 53.101443,10.842653 53.528109,9.7626557 54.008108,8.5493254 54.34144,8.1626597 54.554773,7.9226604 54.874772,7.815994 54.208107,7.3093286 54.208107,6.2293313 54.30144,5.4559999 54.848106,4.9760011 55.408104,4.482669 56.194769,4.482669 h 3.039992 l -1.586662,6.773316 h -0.813332 l 0.693332,-3.0399921 h -1.386663 q -0.693332,0 -0.973331,0.1866662 Q 54.901439,8.575992 54.62144,9.242657 l -0.16,0.3733324 q -0.333332,0.7866646 -0.666665,1.3999966 -0.186666,0.239999 -0.319999,0.239999 z"
       id="path1" />
    <path
       d="m 10.341573,19.789297 -0.01333,0.02667 q 0.02667,-0.02667 0.04,-0.02667 0.08,0 0.226666,0.346666 0.159999,0.333332 0.159999,0.426665 0,0.04 -0.04,0.279999 l -0.173333,1.013331 q -0.04,0.24 -0.04,0.293333 0,0.386665 0.279999,0.386665 h 0.479999 l -0.213333,0.719999 h -0.413333 q -0.546665,0 -0.7733309,-0.186667 Q 9.634908,22.882622 9.634908,22.34929 q 0,-0.173333 0.093333,-0.573332 L 9.9149073,20.97596 q 0,-0.893331 -0.933331,-0.893331 H 8.1949117 l -0.799998,3.173326 H 6.5682491 L 8.1415785,16.482638 H 8.968243 l -0.626665,2.86666 h 0.8666644 q 0.4799988,0 0.7199982,-0.213333 Q 10.16824,18.922632 10.301573,18.4293 l 0.306666,-1.09333 q 0.199999,-0.693332 0.573332,-0.799998 0.186666,-0.05333 0.439999,-0.05333 h 0.759998 l -0.173333,0.773332 h -0.439999 q -0.306666,0 -0.426666,0.439999 L 11.061571,18.6693 q -0.279999,0.999997 -0.719998,1.119997 z m 3.306652,-0.266666 q -0.426666,1.399996 -0.426666,2.226661 0,0.439999 0.319999,0.719998 0.32,0.266666 0.759998,0.266666 0.559999,0 1.013331,-0.413332 0.453332,-0.413333 0.599999,-0.973331 l 0.559998,-2.079995 q 0.173333,-0.639998 0.173333,-1.013331 0,-1.226663 -1.079997,-1.226663 -0.933331,0 -1.466663,1.21333 -0.2,0.453332 -0.453332,1.279997 z m 3.693324,3.119992 -0.186666,0.666665 q -1.199997,0 -1.319997,-0.546665 h -0.02667 q -0.546665,0.666665 -1.599996,0.666665 -0.853331,0 -1.306663,-0.493333 -0.453332,-0.506665 -0.453332,-1.359996 0,-0.759998 0.399999,-2.173328 0.613332,-2.173328 1.599996,-2.759993 0.506665,-0.306666 1.106664,-0.306666 h 0.199999 q 0.759998,0 1.199997,0.599999 l 0.02667,-0.01333 0.146666,-0.439999 h 0.813331 l -1.226663,5.026654 q -0.106667,0.439999 -0.106667,0.626665 0,0.413333 0.733332,0.506666 z m 5.159975,-5.479986 -0.506665,-0.09333 q -1.079998,0 -1.57333,0.813331 -0.319999,0.506665 -0.666665,2.306661 l -0.146666,0.746664 q -0.06667,0.333333 -0.06667,0.506666 0,0.533332 0.266666,0.919998 0.293332,0.453332 0.799998,0.453332 1.17333,0 1.626662,-1.159997 0.746665,-1.893329 0.746665,-3.279992 0,-0.466666 -0.479999,-1.21333 z m -3.199992,5.33332 h -0.02667 l -0.973331,4.319989 h -0.799998 l 1.986661,-9.093311 q 0.06667,-0.306666 0.06667,-0.559998 0,-0.413333 -0.12,-0.679999 h 0.826665 q 0.08,0.2 0.08,0.626665 h 0.02667 q 0.533332,-0.719998 1.41333,-0.719998 1.973328,0 1.973328,1.959995 0,0.653332 -0.159999,1.41333 -0.773332,3.653324 -2.506661,3.653324 -0.466665,0 -0.906664,-0.06667 -0.639998,-0.09333 -0.879998,-0.853331 z m 6.479986,-2.919993 -0.853331,3.679991 h -0.826664 l 1.346663,-5.53332 q 0.04,-0.159999 0.04,-0.439999 0,-0.533332 -0.09333,-0.799998 h 0.826664 q 0.05333,0.09333 0.05333,0.626665 0.853332,-0.733331 1.973329,-0.733331 0.453332,0 0.759998,0.213333 0.359999,0.239999 0.359999,0.666665 h 0.02667 q 0.986664,-0.866665 2.053328,-0.879998 1.506663,-0.02667 1.506663,1.279997 0,0.279999 -0.06667,0.546665 l -1.25333,5.053321 h -0.813331 l 1.25333,-5.013321 q 0.06667,-0.266666 0.06667,-0.426666 0,-0.746664 -0.733331,-0.746664 -0.866665,0 -1.559996,0.893331 -0.573332,0.733331 -0.613332,1.33333 l -0.919998,3.95999 h -0.826664 l 1.106664,-4.653322 q 0.133333,-0.559999 0.133333,-0.853331 0,-0.706665 -0.693332,-0.706665 -1.666662,0 -2.253328,2.533327 z m 12.279971,-0.879998 q 0.08,-1.613329 -1.266664,-1.639996 -1.999995,-0.04 -2.479994,4.146656 -0.06667,0.599999 0.253333,1.053331 0.333333,0.493332 0.933331,0.493332 1.133331,0 1.853329,-1.359996 0.626665,-1.186664 0.706665,-2.693327 z m 0.813331,0 q -0.04,1.839995 -1.039998,3.413325 -0.799997,1.279997 -2.093328,1.33333 -1.09333,0.05333 -1.653329,-0.573332 -0.559998,-0.626665 -0.559998,-1.733329 0,-0.946664 0.253332,-1.733329 1.013331,-3.106659 2.959993,-3.106659 2.199994,0 2.133328,2.399994 z m 2.453328,-0.879998 h -0.826665 q 0.239999,-0.679998 0.826665,-1.079997 0.586665,-0.413332 1.306663,-0.413332 0.319999,0 0.639998,0.08 1.199997,0.306665 1.25333,1.33333 0.06667,1.226663 -1.09333,1.879995 l -0.173333,0.05333 q -0.173333,0.05333 -0.506665,0.173333 l -0.546666,0.186666 q -2.079994,0.706665 -2.079994,1.786662 0,0.479999 0.399999,0.746665 0.346665,0.239999 0.853331,0.239999 0.999997,0 1.386663,-0.879997 h 0.866664 q -0.693331,1.573329 -2.253327,1.573329 -1.599996,0 -1.973329,-1.039997 -0.106666,-0.293333 -0.106666,-0.586666 0,-1.479996 2.093328,-2.213327 l 0.719998,-0.253333 q 1.61333,-0.573332 1.61333,-1.439996 0,-0.453333 -0.373333,-0.693332 -0.359999,-0.239999 -0.839998,-0.239999 -0.666665,0 -1.186663,0.786664 z m 7.386639,-0.653331 -0.506666,-0.09333 q -1.079997,0 -1.573329,0.813331 -0.319999,0.506665 -0.666665,2.306661 l -0.146666,0.746664 q -0.06667,0.333333 -0.06667,0.506666 0,0.533332 0.266666,0.919998 0.293333,0.453332 0.799998,0.453332 1.173331,0 1.626663,-1.159997 0.746664,-1.893329 0.746664,-3.279992 0,-0.466666 -0.479998,-1.21333 z m -3.199992,5.33332 h -0.02667 l -0.973331,4.319989 h -0.799998 l 1.986662,-9.093311 q 0.06667,-0.306666 0.06667,-0.559998 0,-0.413333 -0.119999,-0.679999 h 0.826664 q 0.08,0.2 0.08,0.626665 h 0.02667 q 0.533332,-0.719998 1.41333,-0.719998 1.973328,0 1.973328,1.959995 0,0.653332 -0.16,1.41333 -0.773331,3.653324 -2.50666,3.653324 -0.466666,0 -0.906664,-0.06667 -0.639999,-0.09333 -0.879998,-0.853331 z m 6.119985,-2.973326 q -0.426666,1.399996 -0.426666,2.226661 0,0.439999 0.319999,0.719998 0.32,0.266666 0.759999,0.266666 0.559998,0 1.01333,-0.413332 0.453333,-0.413333 0.599999,-0.973331 l 0.559998,-2.079995 q 0.173333,-0.639998 0.173333,-1.013331 0,-1.226663 -1.079997,-1.226663 -0.933331,0 -1.466663,1.21333 -0.199999,0.453332 -0.453332,1.279997 z m 3.693324,3.119992 -0.186666,0.666665 q -1.199997,0 -1.319997,-0.546665 h -0.02667 q -0.546665,0.666665 -1.599996,0.666665 -0.853331,0 -1.306663,-0.493333 -0.453332,-0.506665 -0.453332,-1.359996 0,-0.759998 0.399999,-2.173328 0.613332,-2.173328 1.599996,-2.759993 0.506665,-0.306666 1.106664,-0.306666 h 0.199999 q 0.759998,0 1.199997,0.599999 l 0.02667,-0.01333 0.146666,-0.439999 h 0.813331 l -1.226663,5.026654 q -0.106667,0.439999 -0.106667,0.626665 0,0.413333 0.733332,0.506666 z m 4.839976,-1.733329 0.573332,-2.653327 q -0.09333,-1.199997 -1.279997,-1.199997 -1.21333,0 -1.586663,1.359997 l -0.253332,0.919998 q -0.02667,0.106666 -0.133333,0.546665 l -0.173333,0.733331 q -0.08,0.333333 -0.08,0.866665 0,0.546665 0.306666,0.906664 0.319999,0.359999 0.853331,0.359999 1.37333,0 1.773329,-1.839995 z m 0.479999,1.546663 h -0.02667 l -0.973331,4.359989 h -0.799998 l 0.893331,-3.99999 q 0,0.01333 -0.04,0.05333 l 0.02667,-0.02667 q 0.01333,-0.01333 0.01333,-0.01333 0.01333,0 0.02667,-0.01333 v 0 q 0,0.226666 -0.573332,0.399999 -0.479999,0.159999 -0.813331,0.159999 -1.346663,0 -1.733329,-0.986664 -0.186666,-0.479999 -0.186666,-0.999997 0,-0.893331 0.346666,-2.199995 0.373332,-1.41333 0.866664,-2.039995 0.666665,-0.839997 1.733329,-0.839997 1.026664,0 1.693329,0.679998 l 0.02667,-0.01333 0.533332,-2.34666 h 0.813331 l -0.519999,2.293327 0.08,-0.02667 q 0.173333,-0.05333 0.319999,-0.16 l 0.253333,-0.173333 q 0.293332,-0.199999 0.679998,-0.199999 0.946664,0 1.45333,0.519998 0.519998,0.519999 0.519998,1.466663 0,0.413333 -0.159999,1.266664 -0.479999,2.559993 -1.226664,3.306658 -0.493332,0.493332 -1.159997,0.493332 -0.786664,0 -1.199997,-0.159999 -0.559998,-0.213333 -0.866664,-0.799998 z m 0.906664,-3.973324 -0.506665,2.319994 q -0.08,0.36 -0.08,0.639999 0,0.533332 0.373332,0.959997 0.386666,0.413333 0.906665,0.413333 1.279997,0 1.799995,-1.679996 0.453332,-1.45333 0.453332,-2.759993 0,-0.573332 -0.346665,-0.946664 -0.346666,-0.386666 -0.919998,-0.386666 -0.599999,0 -1.079997,0.426666 -0.466666,0.413332 -0.599999,1.01333 z m 8.866631,4.773322 h -0.853331 q -0.266666,-0.346666 -0.266666,-0.959998 -0.999997,1.066664 -2.119995,1.066664 -0.799998,0 -1.106663,-0.293333 -0.453333,-0.426665 -0.453333,-1.05333 0,-0.2 0.08,-0.533332 l 1.199997,-4.999988 h 0.786665 l -1.186664,4.959988 q -0.06667,0.279999 -0.06667,0.399999 0,0.786665 0.786664,0.786665 0.399999,0 1.33333,-0.773332 0.933331,-0.773331 1.039998,-1.186664 l 1.039997,-4.186656 h 0.813331 l -1.346663,5.653319 q 0,0.613332 0.319999,1.119998 z m 6.133309,0 h -0.853332 q -0.266666,-0.346666 -0.266666,-0.959998 -0.999997,1.066664 -2.119994,1.066664 -0.799998,0 -1.106664,-0.293333 -0.453332,-0.426665 -0.453332,-1.05333 0,-0.2 0.08,-0.533332 l 1.199997,-4.999988 h 0.786664 l -1.186663,4.959988 q -0.06667,0.279999 -0.06667,0.399999 0,0.786665 0.786665,0.786665 0.399999,0 1.33333,-0.773332 0.933331,-0.773331 1.039997,-1.186664 l 1.039997,-4.186656 h 0.813332 l -1.346664,5.653319 q 0,0.613332 0.32,1.119998 z"
       id="path2" />
  </g>
</svg>
